<svg width="32" height="32" viewBox="0 0 32 32" fill="none" xmlns="http://www.w3.org/2000/svg">
  <rect width="32" height="32" rx="8" fill="#FFFDF9" stroke="#E8E3D9" stroke-width="1.5"/>
  <defs>
    <linearGradient id="flameGradFavicon" x1="0%" y1="0%" x2="100%" y2="100%">
      <stop offset="0%" stop-color="#EA580C" />
      <stop offset="50%" stop-color="#C2410C" />
      <stop offset="100%" stop-color="#9A3412" />
    </linearGradient>
  </defs>
  <!-- Cursive 'L' Loop -->
  <path
    d="M 7 13 C 5 10 8 6 12 7 C 16 8 12 18 9 22 C 7 26 12 28 16 25 C 19 23 15 18 12 20"
    stroke="url(#flameGradFavicon)"
    stroke-width="2.5"
    stroke-linecap="round"
    stroke-linejoin="round"
  />
  <!-- Molten Flame Element -->
  <path
    d="M 18 24 C 17 20 19 16 21 13 C 22 16 23 14 24 12 C 27 16 28 21 24 24 C 22 26 19 25 18 24 Z"
    fill="url(#flameGradFavicon)"
  />
</svg>
